<?xml version="1.0" encoding="UTF-8" standalone="no" ?>
<!DOCTYPE svg PUBLIC "-//W3C//DTD SVG 1.1//EN" "http://www.w3.org/Graphics/SVG/1.1/DTD/svg11.dtd">
<svg xmlns="http://www.w3.org/2000/svg" xmlns:xlink="http://www.w3.org/1999/xlink" version="1.1" width="500" height="500" viewBox="0 0 500 500" xml:space="preserve">
<desc>Created with Fabric.js 3.6.3</desc>
<defs>
</defs>
<g transform="matrix(0.8458712261387507 -2.0718e-16 2.0718e-16 0.8458712261387507 248.04348343091425 250)"  >
<path style="stroke: none; stroke-width: 0; stroke-dasharray: none; stroke-linecap: round; stroke-dashoffset: 0; stroke-linejoin: round; stroke-miterlimit: 4; fill: rgb(255,0,0); fill-rule: nonzero; opacity: 1;"  transform=" translate(-347.214464, -408.15557)" d="m 239.32338 158.15557 c -78.60067 0 -142.108912 63.50635 -142.108912 142.10701 l 0 215.78407 c 0 78.60067 63.508242 142.10892 142.108912 142.10892 l 215.78217 0 c 78.60067 0 142.10891 -63.50825 142.10891 -142.10892 l 0 -215.78407 c 0 -78.60066 -63.50824 -142.10701 -142.10891 -142.10701 l -215.78217 0 z" stroke-linecap="round" />
</g>
<g transform="matrix(3.8771878241023554 -9.4964e-16 9.4964e-16 3.8771878241023554 248.0434834309142 249.9999999999992)"  >
<path style="stroke: none; stroke-width: 0; stroke-dasharray: none; stroke-linecap: butt; stroke-dashoffset: 0; stroke-linejoin: miter; stroke-miterlimit: 4; fill: rgb(255,255,255); fill-rule: nonzero; opacity: 0.85;"  transform=" translate(-50, -50)" d="M 75.781 5 H 24.219 C 13.608 5 5 13.605 5 24.219 v 51.563 C 5 86.395 13.608 95 24.219 95 h 51.563 C 86.398 95 95 86.395 95 75.781 V 24.219 C 95 13.605 86.398 5 75.781 5 z" stroke-linecap="round" />
</g>
<g transform="matrix(1.5997593029740553 0 0 1.5997593029740553 248.0434834309139 286.99420458771885)"  >
<g style=""   >
		<g transform="matrix(1.3333333333333335 0 0 1.3333333333333335 0.7500000000000142 22.333333333333336)"  >
<path style="stroke: none; stroke-width: 1; stroke-dasharray: none; stroke-linecap: butt; stroke-dashoffset: 0; stroke-linejoin: miter; stroke-miterlimit: 4; fill: rgb(255,0,0); fill-rule: nonzero; opacity: 1;"  transform=" translate(-50.0625, -66.25)" d="m 92.125 61.875 l -42.125 -20.875 l -42.25 20.875 v 29.625 l 41.75 -20.625 c 0.375 -0.125 0.75 -0.125 1.125 0 l 41.75 20.625 z" stroke-linecap="round" />
</g>
		<g transform="matrix(1.3333333333333335 0 0 1.3333333333333335 0.5833333333333357 -21)"  >
<path style="stroke: none; stroke-width: 1; stroke-dasharray: none; stroke-linecap: butt; stroke-dashoffset: 0; stroke-linejoin: miter; stroke-miterlimit: 4; fill: rgb(255,0,0); fill-rule: nonzero; opacity: 1;"  transform=" translate(-49.9375, -33.75)" d="m 50.5 38.375 l 41.625 20.625 l -0.125 -29.625 l -42 -20.875 l -21.25 10.5 l -21 10.375 v 29.625 l 41.75 -20.625 c 0.25 -0.125 0.75 -0.125 1 0 z" stroke-linecap="round" />
</g>
</g>
</g>
<g transform="matrix(1.5997593029740553 0 0 1.5997593029740553 248.0434834309139 216.52905299206213)"  >
<g style=""   >
		<g transform="matrix(1.3333333333333335 0 0 1.3333333333333335 0.7500000000000142 22.333333333333336)"  >
<path style="stroke: none; stroke-width: 1; stroke-dasharray: none; stroke-linecap: butt; stroke-dashoffset: 0; stroke-linejoin: miter; stroke-miterlimit: 4; fill: rgb(255,0,0); fill-rule: nonzero; opacity: 1;"  transform=" translate(-50.0625, -66.25)" d="m 92.125 61.875 l -42.125 -20.875 l -42.25 20.875 v 29.625 l 41.75 -20.625 c 0.375 -0.125 0.75 -0.125 1.125 0 l 41.75 20.625 z" stroke-linecap="round" />
</g>
		<g transform="matrix(1.3333333333333335 0 0 1.3333333333333335 0.5833333333333357 -21)"  >
<path style="stroke: none; stroke-width: 1; stroke-dasharray: none; stroke-linecap: butt; stroke-dashoffset: 0; stroke-linejoin: miter; stroke-miterlimit: 4; fill: rgb(255,0,0); fill-rule: nonzero; opacity: 1;"  transform=" translate(-49.9375, -33.75)" d="m 50.5 38.375 l 41.625 20.625 l -0.125 -29.625 l -42 -20.875 l -21.25 10.5 l -21 10.375 v 29.625 l 41.75 -20.625 c 0.25 -0.125 0.75 -0.125 1 0 z" stroke-linecap="round" />
</g>
</g>
</g>
</svg>